<svg xmlns="http://www.w3.org/2000/svg" viewBox="0 0 64 64" width="64" height="64">
  <rect width="64" height="64" fill="#0c0d12" rx="10"/>
  <circle cx="32" cy="32" r="20" fill="none" stroke="#c8f23a" stroke-width="3"/>
  <circle cx="32" cy="32" r="3.5" fill="#c8f23a"/>
  <g stroke="#c8f23a" stroke-width="1.4" stroke-linecap="round">
    <line x1="32" y1="12" x2="32" y2="28.5"/>
    <line x1="32" y1="35.5" x2="32" y2="52"/>
    <line x1="32" y1="12" x2="32" y2="28.5" transform="rotate(30 32 32)"/>
    <line x1="32" y1="35.5" x2="32" y2="52" transform="rotate(30 32 32)"/>
    <line x1="32" y1="12" x2="32" y2="28.5" transform="rotate(60 32 32)"/>
    <line x1="32" y1="35.5" x2="32" y2="52" transform="rotate(60 32 32)"/>
    <line x1="32" y1="12" x2="32" y2="28.5" transform="rotate(90 32 32)"/>
    <line x1="32" y1="35.5" x2="32" y2="52" transform="rotate(90 32 32)"/>
    <line x1="32" y1="12" x2="32" y2="28.5" transform="rotate(120 32 32)"/>
    <line x1="32" y1="35.5" x2="32" y2="52" transform="rotate(120 32 32)"/>
    <line x1="32" y1="12" x2="32" y2="28.5" transform="rotate(150 32 32)"/>
    <line x1="32" y1="35.5" x2="32" y2="52" transform="rotate(150 32 32)"/>
  </g>
</svg>
